<svg xmlns="http://www.w3.org/2000/svg" width="512" height="512" viewBox="0 0 512 512" version="1.1"><path d="M 158.998 347.250 C 158.999 347.663, 164.963 347.919, 172.250 347.820 C 185.574 347.638, 183.975 347.265, 167.748 346.768 C 162.934 346.621, 158.996 346.837, 158.998 347.250 M 246.250 347.749 C 262.612 347.904, 289.387 347.904, 305.750 347.749 C 322.113 347.595, 308.725 347.469, 276 347.469 C 243.275 347.469, 229.887 347.595, 246.250 347.749 M 156.750 362.745 C 161.837 362.927, 170.162 362.927, 175.250 362.745 C 180.338 362.564, 176.175 362.415, 166 362.415 C 155.825 362.415, 151.662 362.564, 156.750 362.745 M 253.323 362.750 C 272.476 362.902, 303.526 362.902, 322.323 362.749 C 341.120 362.597, 325.450 362.473, 287.500 362.473 C 249.550 362.473, 234.170 362.598, 253.323 362.750 M 239.219 425.578 C 232.589 428.882, 225.672 436.587, 223.054 443.586 C 221.196 448.550, 221 451.319, 221 472.538 L 221 496 241.061 496 L 261.123 496 260.811 470.224 L 260.500 444.449 257.291 437.935 C 254.177 431.613, 247.290 423, 245.350 423 C 244.823 423, 242.064 424.160, 239.219 425.578" stroke="none" fill="#873e2f" fill-rule="evenodd"/><path d="M 253.250 155.689 C 254.213 155.941, 255.787 155.941, 256.750 155.689 C 257.712 155.438, 256.925 155.232, 255 155.232 C 253.075 155.232, 252.287 155.438, 253.250 155.689 M 174.750 179.745 C 179.837 179.927, 188.162 179.927, 193.250 179.745 C 198.338 179.564, 194.175 179.415, 184 179.415 C 173.825 179.415, 169.662 179.564, 174.750 179.745 M 310.286 196.500 C 310.294 199.250, 310.488 200.256, 310.718 198.736 C 310.947 197.216, 310.941 194.966, 310.704 193.736 C 310.467 192.506, 310.279 193.750, 310.286 196.500 M 197.250 391.750 C 229.563 391.896, 282.438 391.896, 314.750 391.750 C 347.063 391.603, 320.625 391.484, 256 391.484 C 191.375 391.484, 164.938 391.603, 197.250 391.750 M 248.750 421.716 C 247.238 421.945, 246 422.253, 246 422.400 C 246 422.547, 247.819 424.637, 250.041 427.045 C 252.264 429.452, 255.526 434.353, 257.291 437.935 L 260.500 444.449 260.811 470.224 L 261.123 496 275.176 496 L 289.229 496 288.760 472.250 C 288.247 446.338, 287.803 443.935, 281.965 435.449 C 275.229 425.659, 261.150 419.838, 248.750 421.716 M 229.946 431.750 L 226.500 435.500 230.250 432.054 C 233.740 428.846, 234.460 428, 233.696 428 C 233.529 428, 231.842 429.688, 229.946 431.750 M 205.429 473.500 C 205.429 486.150, 205.573 491.187, 205.747 484.694 C 205.922 478.200, 205.921 467.850, 205.746 461.694 C 205.571 455.537, 205.428 460.850, 205.429 473.500 M 220.428 474 C 220.428 486.375, 220.571 491.438, 220.747 485.250 C 220.922 479.063, 220.922 468.938, 220.747 462.750 C 220.571 456.563, 220.428 461.625, 220.428 474 M 303.428 474 C 303.428 486.375, 303.571 491.438, 303.747 485.250 C 303.922 479.063, 303.922 468.938, 303.747 462.750 C 303.571 456.563, 303.428 461.625, 303.428 474" stroke="none" fill="#6d3326" fill-rule="evenodd"/><path d="M 319.301 205.330 C 319.770 210.923, 320.681 219.763, 321.327 224.973 L 322.500 234.445 337.814 245.325 C 346.237 251.309, 353.299 256.034, 353.508 255.825 C 353.716 255.617, 353.058 249.833, 352.044 242.973 C 351.031 236.113, 349.685 225.325, 349.053 219 C 348.421 212.675, 347.681 206.037, 347.407 204.248 L 346.909 200.996 343.791 202.608 C 338.770 205.204, 331.262 204.091, 325.366 199.876 C 322.690 197.962, 320.039 196.118, 319.474 195.778 C 318.778 195.358, 318.723 198.428, 319.301 205.330 M 345.002 395.750 C 345.003 397.813, 346.352 421.100, 348 447.500 C 349.648 473.900, 350.997 495.613, 350.998 495.750 C 350.999 495.887, 357.300 496, 365 496 L 379 496 378.997 493.250 C 378.995 491.738, 377.645 468.928, 375.997 442.561 C 374.349 416.195, 373 394.033, 373 393.311 C 373 392.292, 369.883 392, 359 392 L 345 392 345.002 395.750" stroke="none" fill="#fa2a3b" fill-rule="evenodd"/><path d="M 381.234 33.006 C 368.868 50.535, 366.611 52.708, 362.282 51.254 C 359.614 50.358, 359.269 50.650, 353.856 58.392 C 348.726 65.730, 348.339 66.646, 349.606 68.455 C 352.743 72.933, 351.694 74.819, 325.318 112.151 C 311.193 132.143, 298.375 150.246, 296.833 152.380 L 294.030 156.259 296.765 159.557 C 298.269 161.371, 299.766 162.888, 300.091 162.928 C 300.586 162.988, 392.493 33.798, 398.439 24.685 L 400.378 21.713 397.439 19.362 C 395.823 18.068, 394.050 17.016, 393.500 17.024 C 392.950 17.032, 387.431 24.224, 381.234 33.006 M 78.113 55.841 C 76.951 57.473, 76.021 59.189, 76.046 59.654 C 76.071 60.119, 107.173 82.437, 145.161 109.248 L 214.230 157.996 217.538 155.248 C 219.357 153.737, 220.767 152.194, 220.672 151.820 C 220.578 151.445, 211.050 144.442, 199.500 136.256 C 124.382 83.016, 83.059 53.960, 81.744 53.455 C 80.782 53.086, 79.453 53.960, 78.113 55.841 M 250.915 140.315 C 251.367 140.767, 253.483 140.984, 255.618 140.797 L 259.500 140.458 254.796 139.975 C 252.210 139.710, 250.463 139.863, 250.915 140.315 M 177 164 L 158.500 164.568 177.250 164.784 C 189.227 164.922, 196 164.639, 196 164 C 196 163.450, 195.887 163.097, 195.750 163.216 C 195.613 163.334, 187.175 163.687, 177 164 M 281 165.313 C 281 165.485, 282.462 166.948, 284.250 168.563 L 287.500 171.500 284.563 168.250 C 281.825 165.221, 281 164.540, 281 165.313 M 295.286 196.500 C 295.294 199.250, 295.488 200.256, 295.718 198.736 C 295.947 197.216, 295.941 194.966, 295.704 193.736 C 295.467 192.506, 295.279 193.750, 295.286 196.500 M 162.323 300.202 C 135.382 338.316, 112.981 370.112, 112.543 370.861 C 111.742 372.227, 116.363 376.931, 118.500 376.926 C 119.215 376.924, 201.649 261.371, 216.745 239.210 C 217.819 237.634, 217.530 236.937, 214.648 234.143 L 211.305 230.904 162.323 300.202 M 292.609 237.486 C 291.091 238.894, 289.995 240.474, 290.174 240.999 C 290.423 241.727, 375.792 302.563, 425.112 337.160 L 431.124 341.377 433.526 338.438 C 434.847 336.822, 435.933 335.050, 435.939 334.500 C 435.945 333.950, 429.549 328.963, 421.725 323.418 C 353.380 274.980, 297.768 235.848, 296.683 235.432 C 295.961 235.155, 294.127 236.079, 292.609 237.486 M 197.250 376.750 C 230.112 376.896, 283.887 376.896, 316.750 376.750 C 349.612 376.604, 322.725 376.484, 257 376.484 C 191.275 376.484, 164.387 376.604, 197.250 376.750" stroke="none" fill="#688b96" fill-rule="evenodd"/><path d="M 240.908 158.890 C 217.702 167.970, 208.113 195.273, 220.630 216.631 C 225.397 224.766, 235.243 232.330, 244.313 234.825 C 248.100 235.866, 248.166 235.834, 253.813 230.161 C 269.087 214.818, 272.295 193.346, 262.272 173.554 C 259.349 167.781, 249.419 156.979, 247.098 157.047 C 246.219 157.073, 243.433 157.902, 240.908 158.890 M 190.563 358.879 C 189.744 360.462, 188.346 362.037, 187.455 362.379 C 186.565 362.720, 177.388 363, 167.063 363 L 148.290 363 144.039 369.060 C 141.701 372.394, 139.987 375.321, 140.231 375.565 C 140.475 375.809, 193.200 375.894, 257.396 375.754 L 374.117 375.500 365.309 369.255 L 356.500 363.010 286.385 363.005 C 216.969 363, 216.243 362.979, 213.635 360.927 C 212.186 359.788, 211 358.213, 211 357.427 C 211 356.291, 209.067 356, 201.526 356 C 192.099 356, 192.044 356.014, 190.563 358.879" stroke="none" fill="#daeaef" fill-rule="evenodd"/><path d="M 249 156.660 C 249 157.022, 251.423 159.859, 254.384 162.964 C 266.180 175.331, 270.682 192.283, 266.467 208.465 C 264.284 216.845, 260.356 223.589, 253.848 230.126 L 248.196 235.804 251.737 236.217 C 267.525 238.061, 284.112 228.430, 291.307 213.241 C 294.267 206.992, 294.500 205.734, 294.500 196 C 294.500 186.701, 294.193 184.846, 291.820 179.782 C 286.840 169.158, 277.288 160.933, 266.068 157.609 C 260.720 156.024, 249 155.372, 249 156.660 M 191.651 355.750 C 191.394 356.163, 194.405 356.377, 198.342 356.226 C 210.526 355.760, 211.934 355.327, 201.809 355.160 C 196.479 355.072, 191.908 355.337, 191.651 355.750" stroke="none" fill="#c9e2e7" fill-rule="evenodd"/><path d="M 98.936 27.250 C 94.947 32.888, 91.309 37.991, 90.851 38.591 C 90.311 39.299, 95.021 43.192, 104.260 49.676 C 112.092 55.172, 119.025 59.972, 119.666 60.342 C 120.391 60.760, 123.887 56.707, 128.916 49.619 C 133.362 43.351, 137 38.012, 137 37.753 C 137 36.987, 108.299 17, 107.199 17 C 106.643 17, 102.925 21.612, 98.936 27.250 M 402.609 45.939 C 396.774 54.191, 392 61.147, 392 61.398 C 392 62.579, 415.292 78.096, 415.947 77.351 C 418.495 74.455, 436 48.914, 436 48.092 C 436 47.541, 431.387 43.849, 425.750 39.887 C 420.113 35.926, 414.986 32.291, 414.359 31.810 C 413.583 31.216, 409.821 35.739, 402.609 45.939 M 142.145 58.657 C 137.593 65.044, 134.236 70.626, 134.685 71.063 C 135.133 71.500, 146.943 79.936, 160.930 89.809 L 186.359 107.762 194.604 96.131 C 200.883 87.272, 202.568 84.225, 201.674 83.348 C 200.566 82.260, 158.304 52.211, 152.930 48.690 L 150.420 47.045 142.145 58.657 M 378.776 79.706 C 364.040 100.131, 346 126.088, 346 126.866 C 346 127.386, 350.613 131.075, 356.250 135.064 C 361.887 139.053, 367.015 142.711, 367.644 143.193 C 368.426 143.792, 374.433 136.100, 386.644 118.866 C 396.465 105.005, 404.827 93.123, 405.226 92.463 C 405.701 91.679, 402.072 88.529, 394.766 83.381 C 388.614 79.047, 383.278 75.368, 382.908 75.206 C 382.538 75.044, 380.679 77.069, 378.776 79.706 M 208.268 104.409 C 204.291 110.092, 200.808 115.363, 200.529 116.121 C 200.197 117.025, 205.058 121.059, 214.634 127.829 C 222.671 133.509, 229.779 138.362, 230.429 138.611 C 231.079 138.861, 235.280 133.875, 239.763 127.533 L 247.916 116.001 242.708 112.189 C 230.275 103.088, 217.064 94.003, 216.314 94.038 C 215.866 94.059, 212.246 98.726, 208.268 104.409 M 325.252 155.338 C 319.639 163.246, 314.793 170.375, 314.484 171.182 C 314.093 172.201, 317.267 174.993, 324.877 180.324 C 330.903 184.546, 336.249 188, 336.758 188 C 337.715 188, 359.029 158.431, 358.962 157.196 C 358.920 156.432, 339.109 142.363, 336.857 141.499 C 335.917 141.138, 332.101 145.688, 325.252 155.338 M 173.797 206.767 C 169.094 212.268, 152.998 236.187, 153.477 236.963 C 154.347 238.370, 174.337 252.291, 175.648 252.402 C 176.659 252.488, 196.484 225.508, 197.659 222.447 C 197.910 221.793, 195.052 219.101, 191.308 216.465 C 187.563 213.828, 182.425 210.178, 179.889 208.353 C 175.571 205.244, 175.185 205.144, 173.797 206.767 M 130.899 267.238 C 124.169 276.732, 115.824 288.493, 112.354 293.374 L 106.045 302.248 108.273 303.936 C 111.615 306.468, 127.332 317.572, 128.644 318.328 C 129.353 318.736, 136.560 309.372, 147.565 293.744 C 157.342 279.860, 165.681 268.045, 166.095 267.489 C 166.688 266.692, 152.323 255.612, 144.377 250.738 C 143.527 250.217, 139.266 255.434, 130.899 267.238 M 274.455 263.191 C 271.268 267.761, 267.586 272.927, 266.271 274.672 L 263.882 277.844 279.506 288.941 C 288.099 295.044, 295.509 299.804, 295.972 299.518 C 297.043 298.855, 310.857 279.537, 311.549 277.732 C 311.886 276.854, 307.006 272.808, 297.634 266.197 C 289.695 260.596, 282.536 255.759, 281.724 255.448 C 280.708 255.058, 278.448 257.465, 274.455 263.191 M 322.943 289.863 C 321.536 291.863, 317.818 297.167, 314.681 301.648 L 308.976 309.797 334.654 327.954 C 348.777 337.940, 360.663 346.198, 361.067 346.305 C 361.471 346.412, 365.448 341.343, 369.905 335.040 C 376.312 325.980, 377.746 323.333, 376.754 322.400 C 375.540 321.258, 328.518 287.942, 326.500 286.795 C 325.950 286.482, 324.349 287.863, 322.943 289.863 M 86.190 330.376 C 80.585 338.320, 76 345.237, 76 345.747 C 76 346.533, 96.784 361.945, 98.402 362.358 C 98.916 362.490, 120 333.355, 120 332.512 C 120 332, 99.112 316.980, 97.586 316.395 C 96.899 316.131, 91.992 322.151, 86.190 330.376 M 383.264 344.017 C 378.994 350.077, 375.500 355.431, 375.500 355.916 C 375.500 356.940, 403.450 377, 404.877 377 C 405.403 377, 408.422 373.288, 411.586 368.750 C 414.750 364.212, 418.403 359.087, 419.704 357.360 L 422.069 354.221 407.063 343.610 C 398.810 337.775, 391.826 333, 391.542 333 C 391.259 333, 387.534 337.958, 383.264 344.017" stroke="none" fill="#eff3f5" fill-rule="evenodd"/><path d="M 389.553 409.750 C 389.806 412.363, 390.911 430.025, 392.010 449 C 393.108 467.975, 394.266 486.313, 394.583 489.750 L 395.159 496 428.925 496 C 460.076 496, 462.815 495.862, 464.307 494.213 C 468.903 489.135, 470.441 477.391, 467.449 470.218 C 464.676 463.569, 455.492 456, 450.198 456 C 448.892 456, 447.969 454.852, 447.181 452.250 C 444.148 442.235, 435.482 431.851, 426.484 427.448 C 423.626 426.050, 418.293 424.410, 414.633 423.803 C 408.721 422.824, 407.752 422.335, 405.954 419.426 C 403.411 415.311, 392.358 405, 390.490 405 C 389.427 405, 389.204 406.133, 389.553 409.750 M 83.741 417.210 C 80.308 420.669, 76.369 425.022, 74.986 426.883 C 72.778 429.854, 71.706 430.371, 66.189 431.126 C 62.733 431.598, 57.698 432.934, 55.001 434.095 C 48.556 436.868, 40.871 445.027, 38.607 451.503 C 35.406 460.659, 34.817 461.380, 28.976 463.303 C 18.892 466.623, 13.580 475.011, 15.960 483.853 C 17.186 488.404, 22.444 493.693, 27.058 495.017 C 32.489 496.574, 116.981 496.324, 117.074 494.750 C 117.114 494.063, 117.721 484.950, 118.423 474.500 L 119.699 455.500 116.504 447.414 C 112.901 438.296, 106.828 428.485, 99.058 419.230 C 91.150 409.811, 91.090 409.803, 83.741 417.210" stroke="none" fill="#49cb8b" fill-rule="evenodd"/><path d="M 103 405.428 C 99.464 406.409, 92.690 409.301, 91.279 410.431 C 91.158 410.528, 93.559 413.284, 96.615 416.554 C 104.317 424.797, 112.500 437.383, 116.551 447.215 C 118.428 451.772, 119.981 454.600, 120.004 453.500 C 120.026 452.400, 120.696 441.600, 121.494 429.500 C 122.292 417.400, 122.957 406.712, 122.973 405.750 C 122.996 404.224, 122.008 404.011, 115.250 404.089 C 110.987 404.139, 105.475 404.741, 103 405.428 M 392.027 405.647 C 395.946 408.256, 403.936 416.208, 406.048 419.600 C 407.732 422.306, 408.826 422.841, 414.633 423.803 C 418.293 424.410, 423.626 426.050, 426.484 427.448 C 435.482 431.851, 444.148 442.235, 447.181 452.250 C 447.969 454.852, 448.892 456, 450.198 456 C 455.492 456, 464.676 463.569, 467.449 470.218 C 470.441 477.391, 468.903 489.135, 464.307 494.213 C 462.764 495.918, 463.179 496, 473.385 496 C 482.177 496, 484.791 495.637, 488.079 493.960 C 494.898 490.481, 498.320 482.349, 496.093 474.917 C 494.333 469.041, 491.214 466.131, 484.023 463.656 L 477.546 461.427 474.842 454.102 C 473.310 449.951, 470.440 444.767, 468.220 442.138 C 463.530 436.587, 455.017 431.951, 448.339 431.311 C 440.821 430.590, 438.442 429.239, 434.659 423.542 C 426.557 411.340, 412.303 404.039, 396.527 404.012 C 389.721 404, 389.614 404.039, 392.027 405.647" stroke="none" fill="#13b766" fill-rule="evenodd"/><path d="M 103.123 1.042 C 101.265 1.458, 98.593 2.660, 97.184 3.712 C 93.018 6.823, 61.312 52.463, 60.712 56.213 C 60.044 60.396, 61.600 66.845, 63.982 69.754 C 64.997 70.993, 84.653 85.324, 107.663 101.600 C 130.674 117.876, 150.073 131.739, 150.774 132.406 C 151.800 133.383, 151.282 135.268, 148.122 142.060 C 142.324 154.524, 140.737 159.861, 141.464 164.454 C 142.202 169.123, 145.137 174.205, 148.290 176.270 C 150.509 177.724, 150.531 177.946, 149.742 190.624 C 149.302 197.706, 148.585 206.425, 148.150 210 L 147.358 216.500 104.840 276.516 C 81.454 309.525, 61.749 337.600, 61.050 338.906 C 59.337 342.107, 60.131 351.779, 62.388 355.204 C 63.368 356.691, 73.862 364.745, 85.709 373.101 L 107.248 388.295 99.065 390.657 C 94.565 391.956, 89.210 393.873, 87.166 394.916 C 80.757 398.185, 71.353 405.820, 67.481 410.896 C 64.177 415.229, 63.226 415.845, 58.970 416.410 C 51.919 417.345, 40.654 423.390, 34.508 429.535 C 31.370 432.674, 27.838 437.648, 25.853 441.726 C 22.927 447.738, 21.948 448.847, 18.162 450.442 C 11.763 453.140, 4.595 460.798, 1.999 467.711 C -0.895 475.418, -0.525 486.340, 2.864 493.270 C 6.179 500.046, 12.967 506.439, 19.761 509.182 L 25.500 511.500 256 511.500 L 486.500 511.500 492.102 509.234 C 498.895 506.485, 506.045 499.710, 508.993 493.229 C 510.175 490.628, 511.561 487.719, 512.072 486.764 C 513.198 484.656, 513.324 470.682, 512.210 471.370 C 511.775 471.639, 510.633 469.645, 509.672 466.940 C 507.537 460.928, 499.942 453.015, 493.838 450.442 C 490.052 448.847, 489.073 447.738, 486.147 441.726 C 480.124 429.353, 467.360 419.376, 454.091 416.669 C 448.965 415.623, 447.711 414.877, 444.354 410.874 C 437.114 402.242, 427.514 395.328, 418.709 392.403 C 414.903 391.139, 414.082 390.534, 415.269 389.869 C 418.072 388.301, 449.813 342.408, 450.891 338.367 C 452.055 334, 451.168 328.712, 448.617 324.819 C 447.693 323.409, 430.141 310.386, 409.611 295.878 L 372.285 269.500 370.176 257.500 C 367.137 240.198, 364.216 216.942, 362.737 198.262 L 361.452 182.024 405.836 119.262 C 430.247 84.743, 450.660 55.375, 451.198 54 C 452.559 50.519, 451.686 41.695, 449.676 38.628 C 448.211 36.392, 432.297 24.651, 406.736 6.948 C 399.758 2.115, 398.443 1.572, 393.736 1.576 C 385.464 1.582, 383.159 3.585, 369.746 22.422 C 355.785 42.028, 354.937 43.728, 357.311 47.352 C 359.612 50.864, 365.316 51.923, 368.163 49.369 C 369.730 47.963, 386.575 24.999, 392.173 16.637 C 392.813 15.681, 401 20.296, 401 21.612 C 401 22.063, 308.018 153.918, 301.703 162.421 C 300.330 164.270, 300.160 164.214, 297.137 160.921 C 295.410 159.039, 294.163 156.780, 294.365 155.901 C 294.568 155.022, 306.808 137.247, 321.566 116.401 C 336.324 95.555, 349.011 77.275, 349.759 75.777 C 350.937 73.419, 350.895 72.580, 349.441 69.516 C 348.515 67.565, 346.789 65.734, 345.592 65.434 C 341.205 64.333, 338.307 66.729, 330.440 77.957 C 322.699 89.008, 322.668 89.037, 320.587 87.160 C 312.398 79.774, 292.181 68.745, 277.703 63.765 C 269.425 60.918, 267.294 60.595, 256.500 60.550 C 243.112 60.494, 236.280 62.106, 221.709 68.759 L 213.918 72.316 211.209 70.333 C 200.159 62.248, 116.083 3.097, 114.500 2.295 C 111.381 0.715, 106.819 0.212, 103.123 1.042 M 98.062 26.533 C 93.579 32.877, 89.723 38.614, 89.493 39.283 C 89.104 40.415, 118.797 62.030, 120.665 61.975 C 121.737 61.944, 137.115 40.338, 137.622 38.151 C 137.895 36.971, 133.607 33.430, 122.605 25.750 C 114.135 19.837, 106.982 15, 106.709 15 C 106.435 15, 102.544 20.190, 98.062 26.533 M 402 44.956 C 396.225 53.161, 391.384 60.465, 391.242 61.187 C 390.969 62.577, 412.946 78.500, 415.138 78.500 C 416.699 78.500, 436.994 50.137, 436.997 47.950 C 437 46.615, 417.130 31.700, 413.716 30.475 C 413.029 30.228, 407.929 36.532, 402 44.956 M 141.250 57.966 C 136.713 64.493, 133.012 70.208, 133.026 70.666 C 133.048 71.359, 174.987 101.475, 184.003 107.272 L 186.758 109.043 195.018 97.354 C 199.561 90.925, 203.328 85.098, 203.389 84.404 C 203.496 83.190, 151.955 45.948, 150.309 46.050 C 149.864 46.078, 145.787 51.440, 141.250 57.966 M 77.590 55.652 C 75.138 59.261, 75.096 59.537, 76.754 61.135 C 77.714 62.061, 109.074 84.433, 146.442 110.852 L 214.384 158.885 218.101 155.693 C 220.145 153.937, 221.747 152.179, 221.659 151.787 C 221.489 151.025, 83.311 53.057, 81.341 52.301 C 80.698 52.054, 79.011 53.562, 77.590 55.652 M 362.977 100.168 C 352.815 114.560, 344.500 126.710, 344.500 127.166 C 344.500 127.997, 367.797 145.009, 368.909 144.990 C 369.636 144.978, 406.408 93.033, 406.734 91.558 C 406.963 90.520, 383.980 74, 382.307 74 C 381.838 74, 373.140 85.776, 362.977 100.168 M 245.500 75.955 C 239.781 77.198, 228.662 81.493, 228.348 82.580 C 228.202 83.086, 234.196 87.775, 241.668 93 C 257.944 104.381, 260.625 106.892, 262.014 112.053 C 263.549 117.751, 262.025 122.093, 255.014 132 L 249 140.500 257.274 141.150 C 261.999 141.522, 268.756 142.914, 273.024 144.396 C 277.136 145.823, 280.903 147.106, 281.396 147.245 C 282.581 147.582, 314.151 102.974, 313.715 101.579 C 313.084 99.563, 299.936 90.321, 291.201 85.754 C 277.522 78.603, 268.916 75.894, 258.500 75.460 C 253.550 75.254, 247.700 75.477, 245.500 75.955 M 213.696 95.200 C 212.330 97.015, 208.239 102.722, 204.604 107.882 L 197.996 117.265 214.710 129.120 C 223.903 135.640, 231.716 140.643, 232.073 140.237 C 233.566 138.536, 249 116.166, 249 115.702 C 249 115.423, 243.037 111.016, 235.750 105.908 C 228.463 100.801, 221.078 95.559, 219.339 94.260 L 216.179 91.899 213.696 95.200 M 324.305 154.832 C 318.149 163.539, 312.974 171.161, 312.806 171.769 C 312.434 173.114, 334.769 189.016, 336.951 188.960 C 338.252 188.927, 361.670 157.119, 360.795 156.573 C 360.633 156.471, 354.973 152.476, 348.218 147.694 C 341.462 142.912, 335.837 139, 335.717 139 C 335.597 139, 330.461 146.124, 324.305 154.832 M 163.052 144.711 C 158.753 153.898, 156.049 161.580, 156.554 163.170 C 157.091 164.863, 158.631 165, 177.067 165 C 188.030 165, 196.985 164.662, 196.967 164.250 C 196.927 163.324, 167.528 142.611, 165.686 142.211 C 164.955 142.052, 163.769 143.177, 163.052 144.711 M 245.500 156.386 C 223.716 161.684, 209.910 184.451, 215.414 206 C 218.674 218.762, 225.949 227.579, 238 233.374 C 244.009 236.264, 245.292 236.500, 255 236.500 C 264.734 236.500, 265.992 236.267, 272.241 233.307 C 280.968 229.173, 288.175 221.965, 292.304 213.241 C 295.238 207.042, 295.493 205.696, 295.470 196.500 C 295.437 183.649, 293.125 177.409, 285.238 168.890 C 274.647 157.451, 260.032 152.852, 245.500 156.386 M 165 186.107 C 165 192.479, 165.181 193.141, 166.750 192.505 C 175.881 188.804, 178.545 189.363, 190.422 197.472 L 199.741 203.835 200.331 194.167 C 200.656 188.850, 201.217 183.262, 201.578 181.750 L 202.233 179 183.617 179 L 165 179 165 186.107 M 309.761 198.750 C 309.386 205.982, 308.569 210.293, 306.599 215.444 C 304.534 220.845, 304.228 222.558, 305.222 223.149 C 305.925 223.567, 317.296 231.546, 330.491 240.880 C 343.686 250.214, 354.583 257.750, 354.707 257.626 C 354.831 257.503, 354.080 251.930, 353.038 245.243 C 351.996 238.557, 350.377 225.754, 349.441 216.793 C 348.504 207.832, 347.611 200.352, 347.456 200.170 C 347.300 199.989, 346.122 200.496, 344.837 201.298 C 338.070 205.521, 332.029 204.045, 319.724 195.162 C 315.030 191.773, 310.981 189, 310.728 189 C 310.475 189, 310.040 193.387, 309.761 198.750 M 165.001 217.212 C 159.854 224.520, 154.570 231.929, 153.259 233.676 L 150.876 236.851 163.631 245.899 C 170.647 250.875, 176.462 254.846, 176.554 254.723 C 178.037 252.747, 198.825 223.186, 199.295 222.387 C 199.855 221.434, 179.213 205.786, 175.534 204.375 C 174.888 204.127, 170.148 209.904, 165.001 217.212 M 161.395 300.364 C 133.953 339.181, 111.500 371.386, 111.500 371.929 C 111.500 372.473, 113.057 374.067, 114.960 375.471 C 118.260 377.905, 118.500 377.942, 120.133 376.262 C 122.153 374.182, 217.025 240.099, 217.676 238.402 C 217.921 237.765, 216.584 235.565, 214.705 233.515 L 211.289 229.786 161.395 300.364 M 291.998 237.502 C 289.905 239.662, 288.967 241.348, 289.552 241.902 C 290.073 242.396, 322.131 265.160, 360.791 292.489 C 411.584 328.394, 431.417 341.896, 432.291 341.165 C 432.956 340.609, 434.306 338.781, 435.291 337.103 C 437.013 334.170, 437.013 333.992, 435.291 332.536 C 432.426 330.111, 296.558 234.064, 295.946 234.031 C 295.642 234.014, 293.865 235.576, 291.998 237.502 M 226.291 251.158 C 224.253 253.995, 208.077 276.832, 190.344 301.908 L 158.102 347.500 172.643 348 C 186.421 348.474, 187.283 348.624, 189.091 350.861 C 191.545 353.896, 191.503 356.091, 188.927 359.365 L 186.855 362 167.177 362.032 L 147.500 362.064 142.648 369.097 C 139.980 372.965, 137.994 376.327, 138.236 376.569 C 138.477 376.810, 192.393 376.894, 258.048 376.754 L 377.420 376.500 367.147 369.250 L 356.874 362 286.437 362 C 217.333 362, 215.962 361.962, 214 360 C 211.389 357.389, 211.406 352.490, 214.032 350.240 C 215.899 348.641, 220.933 348.459, 276.161 348 L 336.258 347.500 297.379 320.012 C 275.995 304.894, 256.817 291.008, 254.760 289.154 C 250.118 284.973, 248.303 279.271, 249.907 273.916 C 250.511 271.901, 253.929 266.121, 257.502 261.072 C 261.076 256.023, 264 251.741, 264 251.557 C 264 251.372, 259.163 251.025, 253.250 250.784 C 245.587 250.473, 240.787 249.723, 236.535 248.174 C 233.254 246.978, 230.440 246, 230.283 246 C 230.126 246, 228.329 248.321, 226.291 251.158 M 123.975 275.111 C 113.814 289.472, 105.364 301.579, 105.199 302.015 C 104.880 302.853, 128.243 320.011, 129.667 319.984 C 130.350 319.971, 166.811 269.209, 167.803 266.889 C 168.115 266.159, 144.499 249, 143.183 249 C 142.779 249, 134.136 260.750, 123.975 275.111 M 271.757 265.154 C 267.040 271.838, 263.389 277.801, 263.642 278.404 C 263.896 279.007, 271.272 284.538, 280.032 290.695 L 295.960 301.890 304.428 290.100 C 309.086 283.616, 313.032 277.821, 313.198 277.223 C 313.417 276.434, 281.801 253, 280.518 253 C 280.416 253, 276.474 258.469, 271.757 265.154 M 316.599 297.032 C 311.870 303.650, 308.009 309.388, 308.020 309.782 C 308.052 310.951, 361.105 348.053, 361.975 347.515 C 363.541 346.548, 379.120 323.862, 378.813 322.997 C 378.513 322.150, 326.514 285, 325.630 285 C 325.393 285, 321.329 290.415, 316.599 297.032 M 85.996 328.796 C 80.294 336.876, 75.473 344.390, 75.282 345.494 C 75.009 347.073, 77.371 349.196, 86.386 355.473 C 92.684 359.858, 98.211 363.551, 98.668 363.679 C 99.740 363.979, 121.258 333.253, 120.826 332.040 C 120.565 331.307, 101.664 317.345, 97.431 314.759 C 96.813 314.381, 91.986 320.306, 85.996 328.796 M 382.957 342.560 C 378.448 348.917, 374.700 354.832, 374.629 355.705 C 374.486 357.464, 402.493 378.004, 405 377.978 C 406.227 377.966, 421.795 357.183, 422.713 354.332 C 422.861 353.874, 418.373 350.272, 412.741 346.326 C 407.108 342.381, 399.948 337.319, 396.828 335.077 L 391.157 331.002 382.957 342.560 M 138.553 392.246 C 138.340 392.936, 136.991 413.525, 135.555 438 C 134.119 462.475, 132.670 485.768, 132.333 489.762 L 131.722 497.025 168.611 496.762 L 205.500 496.500 206.064 470.500 C 206.384 455.744, 207.105 443.114, 207.731 441.295 C 213.257 425.243, 227.852 411.583, 243.282 408.022 C 249.304 406.633, 260.658 406.798, 266.500 408.361 C 282.025 412.515, 293.894 423.359, 300.314 439.255 C 302.223 443.981, 302.485 447.073, 302.966 470.500 L 303.500 496.500 341.782 496.762 L 380.065 497.024 379.407 486.762 C 379.046 481.118, 377.569 457.375, 376.125 434 L 373.500 391.500 256.220 391.246 C 162.886 391.044, 138.861 391.248, 138.553 392.246 M 105.402 404.434 C 94.086 406.992, 84.529 413.160, 77.703 422.309 C 75.573 425.164, 73.465 427.881, 73.019 428.346 C 72.573 428.812, 68.870 429.772, 64.791 430.480 C 55.842 432.034, 50.264 434.736, 44.873 440.127 C 40.966 444.034, 36.030 452.890, 36.010 456.027 C 35.990 459.107, 32.971 461.808, 28.266 462.955 C 25.645 463.594, 22.523 464.922, 21.329 465.905 C 12.914 472.834, 12.914 486.194, 21.329 493.085 C 25.631 496.608, 30.987 497, 74.795 497 L 117.704 497 118.282 489.250 C 120.319 461.966, 123.287 404.954, 122.701 404.368 C 121.358 403.025, 111.467 403.062, 105.402 404.434 M 390.482 403.675 L 388.464 404.078 390.644 439.789 C 391.843 459.430, 393.138 480.337, 393.521 486.250 L 394.219 497 437.166 497 C 481.014 497, 486.369 496.608, 490.671 493.085 C 497.023 487.883, 498.979 477.758, 494.918 471.097 C 492.001 466.312, 489.231 464.296, 483.734 462.955 C 479.029 461.808, 476.010 459.107, 475.990 456.027 C 475.969 452.766, 470.963 443.962, 466.873 439.992 C 461.172 434.460, 456.157 432.034, 447.209 430.480 C 443.130 429.772, 439.427 428.812, 438.981 428.346 C 438.535 427.881, 436.427 425.164, 434.297 422.309 C 427.308 412.942, 417.809 406.915, 406.131 404.440 C 399.721 403.082, 394.688 402.836, 390.482 403.675 M 244.324 422.380 C 235.410 425.294, 226.679 433.131, 222.661 441.824 C 220.629 446.222, 220.500 447.989, 220.500 471.500 L 220.500 496.500 254.500 496.500 L 288.500 496.500 288.500 471.500 L 288.500 446.500 285.736 440.874 C 282.448 434.181, 274.761 426.671, 268.217 423.760 C 262.320 421.136, 250.262 420.440, 244.324 422.380 M 0.343 479.500 C 0.346 483.900, 0.522 485.576, 0.733 483.224 C 0.945 480.872, 0.942 477.272, 0.727 475.224 C 0.512 473.176, 0.339 475.100, 0.343 479.500" stroke="none" fill="#000000" fill-rule="evenodd"/><path d="M 166 186.035 C 166 191.472, 166.173 191.978, 167.750 191.135 C 169.550 190.174, 173.467 189.708, 178.184 189.894 C 179.708 189.954, 184.893 192.748, 190.184 196.361 L 199.500 202.721 199.500 196.111 C 199.500 192.475, 199.865 187.363, 200.311 184.750 L 201.123 180 183.561 180 L 166 180 166 186.035 M 310.720 198.890 C 310.398 203.862, 309.242 210.167, 308.032 213.556 C 306.864 216.825, 305.817 220.130, 305.705 220.900 C 305.525 222.127, 321.009 234.245, 321.808 233.503 C 322.135 233.200, 319.096 199.906, 318.431 196.500 C 318.216 195.400, 316.520 193.525, 314.663 192.334 L 311.285 190.169 310.720 198.890 M 220.780 260.163 C 177.410 321.389, 160 346.104, 160 346.445 C 160 346.665, 166.029 346.992, 173.398 347.173 C 184.885 347.453, 187.096 347.772, 188.898 349.405 C 190.054 350.453, 191 352.140, 191 353.155 C 191 354.822, 191.940 355, 200.756 355 L 210.512 355 211.772 352.153 C 212.465 350.588, 214.171 348.788, 215.563 348.153 C 217.382 347.325, 234.439 347, 276.174 347 L 334.253 347 295.877 319.853 C 274.770 304.922, 256.518 291.984, 255.318 291.103 C 251.577 288.356, 249 282.675, 249 277.177 C 249 272.079, 251.415 267.581, 260.771 255.250 L 263.237 252 255.369 251.942 C 248.594 251.893, 241.751 250.578, 232.363 247.522 C 230.499 246.915, 229.025 248.523, 220.780 260.163 M 139 393.811 C 139 394.808, 137.651 417.195, 136.003 443.561 C 134.355 469.928, 133.005 492.512, 133.003 493.750 L 133 496 169 496 L 205 496 205.015 473.250 C 205.035 441.607, 207.129 433.941, 219.179 421.392 C 234.560 405.374, 256.458 401.602, 276.632 411.495 C 289.263 417.689, 299.942 431.638, 302.895 445.799 C 303.512 448.756, 304 461.022, 304 473.549 L 304 496 327.638 496 L 351.276 496 350.687 489.750 C 350.363 486.313, 348.866 462.913, 347.361 437.750 L 344.624 392 241.812 392 C 143.235 392, 139 392.075, 139 393.811" stroke="none" fill="#fa4954" fill-rule="evenodd"/><path d="M 166 186.035 C 166 191.472, 166.173 191.978, 167.750 191.135 C 169.550 190.174, 173.467 189.708, 178.184 189.894 C 179.708 189.954, 184.893 192.748, 190.184 196.361 L 199.500 202.721 199.500 196.111 C 199.500 192.475, 199.865 187.363, 200.311 184.750 L 201.123 180 183.561 180 L 166 180 166 186.035 M 310.720 198.890 C 310.398 203.862, 309.242 210.167, 308.032 213.556 C 306.864 216.825, 305.817 220.130, 305.705 220.900 C 305.525 222.127, 321.009 234.245, 321.808 233.503 C 322.135 233.200, 319.096 199.906, 318.431 196.500 C 318.216 195.400, 316.520 193.525, 314.663 192.334 L 311.285 190.169 310.720 198.890 M 220.780 260.163 C 177.410 321.389, 160 346.104, 160 346.445 C 160 346.665, 166.029 346.992, 173.398 347.173 C 184.885 347.453, 187.096 347.772, 188.898 349.405 C 190.054 350.453, 191 352.140, 191 353.155 C 191 354.822, 191.940 355, 200.756 355 L 210.512 355 211.772 352.153 C 212.465 350.588, 214.171 348.788, 215.563 348.153 C 217.382 347.325, 234.439 347, 276.174 347 L 334.253 347 295.877 319.853 C 274.770 304.922, 256.518 291.984, 255.318 291.103 C 251.577 288.356, 249 282.675, 249 277.177 C 249 272.079, 251.415 267.581, 260.771 255.250 L 263.237 252 255.369 251.942 C 248.594 251.893, 241.751 250.578, 232.363 247.522 C 230.499 246.915, 229.025 248.523, 220.780 260.163 M 139 393.811 C 139 394.808, 137.651 417.195, 136.003 443.561 C 134.355 469.928, 133.005 492.512, 133.003 493.750 L 133 496 169 496 L 205 496 205.015 473.250 C 205.035 441.607, 207.129 433.941, 219.179 421.392 C 234.560 405.374, 256.458 401.602, 276.632 411.495 C 289.263 417.689, 299.942 431.638, 302.895 445.799 C 303.512 448.756, 304 461.022, 304 473.549 L 304 496 327.638 496 L 351.276 496 350.687 489.750 C 350.363 486.313, 348.866 462.913, 347.361 437.750 L 344.624 392 241.812 392 C 143.235 392, 139 392.075, 139 393.811" stroke="none" fill="#fa4954" fill-rule="evenodd"/><path d="M 103.123 1.042 C 101.265 1.458, 98.593 2.660, 97.184 3.712 C 93.018 6.823, 61.312 52.463, 60.712 56.213 C 60.044 60.396, 61.600 66.845, 63.982 69.754 C 64.997 70.993, 84.653 85.324, 107.663 101.600 C 130.674 117.876, 150.073 131.739, 150.774 132.406 C 151.800 133.383, 151.282 135.268, 148.122 142.060 C 142.324 154.524, 140.737 159.861, 141.464 164.454 C 142.202 169.123, 145.137 174.205, 148.290 176.270 C 150.509 177.724, 150.531 177.946, 149.742 190.624 C 149.302 197.706, 148.585 206.425, 148.150 210 L 147.358 216.500 104.840 276.516 C 81.454 309.525, 61.749 337.600, 61.050 338.906 C 59.337 342.107, 60.131 351.779, 62.388 355.204 C 63.368 356.691, 73.862 364.745, 85.709 373.101 L 107.248 388.295 99.065 390.657 C 94.565 391.956, 89.210 393.873, 87.166 394.916 C 80.757 398.185, 71.353 405.820, 67.481 410.896 C 64.177 415.229, 63.226 415.845, 58.970 416.410 C 51.919 417.345, 40.654 423.390, 34.508 429.535 C 31.370 432.674, 27.838 437.648, 25.853 441.726 C 22.927 447.738, 21.948 448.847, 18.162 450.442 C 11.763 453.140, 4.595 460.798, 1.999 467.711 C -0.895 475.418, -0.525 486.340, 2.864 493.270 C 6.179 500.046, 12.967 506.439, 19.761 509.182 L 25.500 511.500 256 511.500 L 486.500 511.500 492.102 509.234 C 498.895 506.485, 506.045 499.710, 508.993 493.229 C 510.175 490.628, 511.561 487.719, 512.072 486.764 C 513.198 484.656, 513.324 470.682, 512.210 471.370 C 511.775 471.639, 510.633 469.645, 509.672 466.940 C 507.537 460.928, 499.942 453.015, 493.838 450.442 C 490.052 448.847, 489.073 447.738, 486.147 441.726 C 480.124 429.353, 467.360 419.376, 454.091 416.669 C 448.965 415.623, 447.711 414.877, 444.354 410.874 C 437.114 402.242, 427.514 395.328, 418.709 392.403 C 414.903 391.139, 414.082 390.534, 415.269 389.869 C 418.072 388.301, 449.813 342.408, 450.891 338.367 C 452.055 334, 451.168 328.712, 448.617 324.819 C 447.693 323.409, 430.141 310.386, 409.611 295.878 L 372.285 269.500 370.176 257.500 C 367.137 240.198, 364.216 216.942, 362.737 198.262 L 361.452 182.024 405.836 119.262 C 430.247 84.743, 450.660 55.375, 451.198 54 C 452.559 50.519, 451.686 41.695, 449.676 38.628 C 448.211 36.392, 432.297 24.651, 406.736 6.948 C 399.758 2.115, 398.443 1.572, 393.736 1.576 C 385.464 1.582, 383.159 3.585, 369.746 22.422 C 355.785 42.028, 354.937 43.728, 357.311 47.352 C 359.612 50.864, 365.316 51.923, 368.163 49.369 C 369.730 47.963, 386.575 24.999, 392.173 16.637 C 392.813 15.681, 401 20.296, 401 21.612 C 401 22.063, 308.018 153.918, 301.703 162.421 C 300.330 164.270, 300.160 164.214, 297.137 160.921 C 295.410 159.039, 294.163 156.780, 294.365 155.901 C 294.568 155.022, 306.808 137.247, 321.566 116.401 C 336.324 95.555, 349.011 77.275, 349.759 75.777 C 350.937 73.419, 350.895 72.580, 349.441 69.516 C 348.515 67.565, 346.789 65.734, 345.592 65.434 C 341.205 64.333, 338.307 66.729, 330.440 77.957 C 322.699 89.008, 322.668 89.037, 320.587 87.160 C 312.398 79.774, 292.181 68.745, 277.703 63.765 C 269.425 60.918, 267.294 60.595, 256.500 60.550 C 243.112 60.494, 236.280 62.106, 221.709 68.759 L 213.918 72.316 211.209 70.333 C 200.159 62.248, 116.083 3.097, 114.500 2.295 C 111.381 0.715, 106.819 0.212, 103.123 1.042 M 98.062 26.533 C 93.579 32.877, 89.723 38.614, 89.493 39.283 C 89.104 40.415, 118.797 62.030, 120.665 61.975 C 121.737 61.944, 137.115 40.338, 137.622 38.151 C 137.895 36.971, 133.607 33.430, 122.605 25.750 C 114.135 19.837, 106.982 15, 106.709 15 C 106.435 15, 102.544 20.190, 98.062 26.533 M 402 44.956 C 396.225 53.161, 391.384 60.465, 391.242 61.187 C 390.969 62.577, 412.946 78.500, 415.138 78.500 C 416.699 78.500, 436.994 50.137, 436.997 47.950 C 437 46.615, 417.130 31.700, 413.716 30.475 C 413.029 30.228, 407.929 36.532, 402 44.956 M 141.250 57.966 C 136.713 64.493, 133.012 70.208, 133.026 70.666 C 133.048 71.359, 174.987 101.475, 184.003 107.272 L 186.758 109.043 195.018 97.354 C 199.561 90.925, 203.328 85.098, 203.389 84.404 C 203.496 83.190, 151.955 45.948, 150.309 46.050 C 149.864 46.078, 145.787 51.440, 141.250 57.966 M 77.590 55.652 C 75.138 59.261, 75.096 59.537, 76.754 61.135 C 77.714 62.061, 109.074 84.433, 146.442 110.852 L 214.384 158.885 218.101 155.693 C 220.145 153.937, 221.747 152.179, 221.659 151.787 C 221.489 151.025, 83.311 53.057, 81.341 52.301 C 80.698 52.054, 79.011 53.562, 77.590 55.652 M 362.977 100.168 C 352.815 114.560, 344.500 126.710, 344.500 127.166 C 344.500 127.997, 367.797 145.009, 368.909 144.990 C 369.636 144.978, 406.408 93.033, 406.734 91.558 C 406.963 90.520, 383.980 74, 382.307 74 C 381.838 74, 373.140 85.776, 362.977 100.168 M 245.500 75.955 C 239.781 77.198, 228.662 81.493, 228.348 82.580 C 228.202 83.086, 234.196 87.775, 241.668 93 C 257.944 104.381, 260.625 106.892, 262.014 112.053 C 263.549 117.751, 262.025 122.093, 255.014 132 L 249 140.500 257.274 141.150 C 261.999 141.522, 268.756 142.914, 273.024 144.396 C 277.136 145.823, 280.903 147.106, 281.396 147.245 C 282.581 147.582, 314.151 102.974, 313.715 101.579 C 313.084 99.563, 299.936 90.321, 291.201 85.754 C 277.522 78.603, 268.916 75.894, 258.500 75.460 C 253.550 75.254, 247.700 75.477, 245.500 75.955 M 213.696 95.200 C 212.330 97.015, 208.239 102.722, 204.604 107.882 L 197.996 117.265 214.710 129.120 C 223.903 135.640, 231.716 140.643, 232.073 140.237 C 233.566 138.536, 249 116.166, 249 115.702 C 249 115.423, 243.037 111.016, 235.750 105.908 C 228.463 100.801, 221.078 95.559, 219.339 94.260 L 216.179 91.899 213.696 95.200 M 324.305 154.832 C 318.149 163.539, 312.974 171.161, 312.806 171.769 C 312.434 173.114, 334.769 189.016, 336.951 188.960 C 338.252 188.927, 361.670 157.119, 360.795 156.573 C 360.633 156.471, 354.973 152.476, 348.218 147.694 C 341.462 142.912, 335.837 139, 335.717 139 C 335.597 139, 330.461 146.124, 324.305 154.832 M 163.052 144.711 C 158.753 153.898, 156.049 161.580, 156.554 163.170 C 157.091 164.863, 158.631 165, 177.067 165 C 188.030 165, 196.985 164.662, 196.967 164.250 C 196.927 163.324, 167.528 142.611, 165.686 142.211 C 164.955 142.052, 163.769 143.177, 163.052 144.711 M 245.500 156.386 C 223.716 161.684, 209.910 184.451, 215.414 206 C 218.674 218.762, 225.949 227.579, 238 233.374 C 244.009 236.264, 245.292 236.500, 255 236.500 C 264.734 236.500, 265.992 236.267, 272.241 233.307 C 280.968 229.173, 288.175 221.965, 292.304 213.241 C 295.238 207.042, 295.493 205.696, 295.470 196.500 C 295.437 183.649, 293.125 177.409, 285.238 168.890 C 274.647 157.451, 260.032 152.852, 245.500 156.386 M 165 186.107 C 165 192.479, 165.181 193.141, 166.750 192.505 C 175.881 188.804, 178.545 189.363, 190.422 197.472 L 199.741 203.835 200.331 194.167 C 200.656 188.850, 201.217 183.262, 201.578 181.750 L 202.233 179 183.617 179 L 165 179 165 186.107 M 309.761 198.750 C 309.386 205.982, 308.569 210.293, 306.599 215.444 C 304.534 220.845, 304.228 222.558, 305.222 223.149 C 305.925 223.567, 317.296 231.546, 330.491 240.880 C 343.686 250.214, 354.583 257.750, 354.707 257.626 C 354.831 257.503, 354.080 251.930, 353.038 245.243 C 351.996 238.557, 350.377 225.754, 349.441 216.793 C 348.504 207.832, 347.611 200.352, 347.456 200.170 C 347.300 199.989, 346.122 200.496, 344.837 201.298 C 338.070 205.521, 332.029 204.045, 319.724 195.162 C 315.030 191.773, 310.981 189, 310.728 189 C 310.475 189, 310.040 193.387, 309.761 198.750 M 165.001 217.212 C 159.854 224.520, 154.570 231.929, 153.259 233.676 L 150.876 236.851 163.631 245.899 C 170.647 250.875, 176.462 254.846, 176.554 254.723 C 178.037 252.747, 198.825 223.186, 199.295 222.387 C 199.855 221.434, 179.213 205.786, 175.534 204.375 C 174.888 204.127, 170.148 209.904, 165.001 217.212 M 161.395 300.364 C 133.953 339.181, 111.500 371.386, 111.500 371.929 C 111.500 372.473, 113.057 374.067, 114.960 375.471 C 118.260 377.905, 118.500 377.942, 120.133 376.262 C 122.153 374.182, 217.025 240.099, 217.676 238.402 C 217.921 237.765, 216.584 235.565, 214.705 233.515 L 211.289 229.786 161.395 300.364 M 291.998 237.502 C 289.905 239.662, 288.967 241.348, 289.552 241.902 C 290.073 242.396, 322.131 265.160, 360.791 292.489 C 411.584 328.394, 431.417 341.896, 432.291 341.165 C 432.956 340.609, 434.306 338.781, 435.291 337.103 C 437.013 334.170, 437.013 333.992, 435.291 332.536 C 432.426 330.111, 296.558 234.064, 295.946 234.031 C 295.642 234.014, 293.865 235.576, 291.998 237.502 M 226.291 251.158 C 224.253 253.995, 208.077 276.832, 190.344 301.908 L 158.102 347.500 172.643 348 C 186.421 348.474, 187.283 348.624, 189.091 350.861 C 191.545 353.896, 191.503 356.091, 188.927 359.365 L 186.855 362 167.177 362.032 L 147.500 362.064 142.648 369.097 C 139.980 372.965, 137.994 376.327, 138.236 376.569 C 138.477 376.810, 192.393 376.894, 258.048 376.754 L 377.420 376.500 367.147 369.250 L 356.874 362 286.437 362 C 217.333 362, 215.962 361.962, 214 360 C 211.389 357.389, 211.406 352.490, 214.032 350.240 C 215.899 348.641, 220.933 348.459, 276.161 348 L 336.258 347.500 297.379 320.012 C 275.995 304.894, 256.817 291.008, 254.760 289.154 C 250.118 284.973, 248.303 279.271, 249.907 273.916 C 250.511 271.901, 253.929 266.121, 257.502 261.072 C 261.076 256.023, 264 251.741, 264 251.557 C 264 251.372, 259.163 251.025, 253.250 250.784 C 245.587 250.473, 240.787 249.723, 236.535 248.174 C 233.254 246.978, 230.440 246, 230.283 246 C 230.126 246, 228.329 248.321, 226.291 251.158 M 123.975 275.111 C 113.814 289.472, 105.364 301.579, 105.199 302.015 C 104.880 302.853, 128.243 320.011, 129.667 319.984 C 130.350 319.971, 166.811 269.209, 167.803 266.889 C 168.115 266.159, 144.499 249, 143.183 249 C 142.779 249, 134.136 260.750, 123.975 275.111 M 271.757 265.154 C 267.040 271.838, 263.389 277.801, 263.642 278.404 C 263.896 279.007, 271.272 284.538, 280.032 290.695 L 295.960 301.890 304.428 290.100 C 309.086 283.616, 313.032 277.821, 313.198 277.223 C 313.417 276.434, 281.801 253, 280.518 253 C 280.416 253, 276.474 258.469, 271.757 265.154 M 316.599 297.032 C 311.870 303.650, 308.009 309.388, 308.020 309.782 C 308.052 310.951, 361.105 348.053, 361.975 347.515 C 363.541 346.548, 379.120 323.862, 378.813 322.997 C 378.513 322.150, 326.514 285, 325.630 285 C 325.393 285, 321.329 290.415, 316.599 297.032 M 85.996 328.796 C 80.294 336.876, 75.473 344.390, 75.282 345.494 C 75.009 347.073, 77.371 349.196, 86.386 355.473 C 92.684 359.858, 98.211 363.551, 98.668 363.679 C 99.740 363.979, 121.258 333.253, 120.826 332.040 C 120.565 331.307, 101.664 317.345, 97.431 314.759 C 96.813 314.381, 91.986 320.306, 85.996 328.796 M 382.957 342.560 C 378.448 348.917, 374.700 354.832, 374.629 355.705 C 374.486 357.464, 402.493 378.004, 405 377.978 C 406.227 377.966, 421.795 357.183, 422.713 354.332 C 422.861 353.874, 418.373 350.272, 412.741 346.326 C 407.108 342.381, 399.948 337.319, 396.828 335.077 L 391.157 331.002 382.957 342.560 M 138.553 392.246 C 138.340 392.936, 136.991 413.525, 135.555 438 C 134.119 462.475, 132.670 485.768, 132.333 489.762 L 131.722 497.025 168.611 496.762 L 205.500 496.500 206.064 470.500 C 206.384 455.744, 207.105 443.114, 207.731 441.295 C 213.257 425.243, 227.852 411.583, 243.282 408.022 C 249.304 406.633, 260.658 406.798, 266.500 408.361 C 282.025 412.515, 293.894 423.359, 300.314 439.255 C 302.223 443.981, 302.485 447.073, 302.966 470.500 L 303.500 496.500 341.782 496.762 L 380.065 497.024 379.407 486.762 C 379.046 481.118, 377.569 457.375, 376.125 434 L 373.500 391.500 256.220 391.246 C 162.886 391.044, 138.861 391.248, 138.553 392.246 M 105.402 404.434 C 94.086 406.992, 84.529 413.160, 77.703 422.309 C 75.573 425.164, 73.465 427.881, 73.019 428.346 C 72.573 428.812, 68.870 429.772, 64.791 430.480 C 55.842 432.034, 50.264 434.736, 44.873 440.127 C 40.966 444.034, 36.030 452.890, 36.010 456.027 C 35.990 459.107, 32.971 461.808, 28.266 462.955 C 25.645 463.594, 22.523 464.922, 21.329 465.905 C 12.914 472.834, 12.914 486.194, 21.329 493.085 C 25.631 496.608, 30.987 497, 74.795 497 L 117.704 497 118.282 489.250 C 120.319 461.966, 123.287 404.954, 122.701 404.368 C 121.358 403.025, 111.467 403.062, 105.402 404.434 M 390.482 403.675 L 388.464 404.078 390.644 439.789 C 391.843 459.430, 393.138 480.337, 393.521 486.250 L 394.219 497 437.166 497 C 481.014 497, 486.369 496.608, 490.671 493.085 C 497.023 487.883, 498.979 477.758, 494.918 471.097 C 492.001 466.312, 489.231 464.296, 483.734 462.955 C 479.029 461.808, 476.010 459.107, 475.990 456.027 C 475.969 452.766, 470.963 443.962, 466.873 439.992 C 461.172 434.460, 456.157 432.034, 447.209 430.480 C 443.130 429.772, 439.427 428.812, 438.981 428.346 C 438.535 427.881, 436.427 425.164, 434.297 422.309 C 427.308 412.942, 417.809 406.915, 406.131 404.440 C 399.721 403.082, 394.688 402.836, 390.482 403.675 M 244.324 422.380 C 235.410 425.294, 226.679 433.131, 222.661 441.824 C 220.629 446.222, 220.500 447.989, 220.500 471.500 L 220.500 496.500 254.500 496.500 L 288.500 496.500 288.500 471.500 L 288.500 446.500 285.736 440.874 C 282.448 434.181, 274.761 426.671, 268.217 423.760 C 262.320 421.136, 250.262 420.440, 244.324 422.380 M 0.343 479.500 C 0.346 483.900, 0.522 485.576, 0.733 483.224 C 0.945 480.872, 0.942 477.272, 0.727 475.224 C 0.512 473.176, 0.339 475.100, 0.343 479.500" stroke="none" fill="#000000" fill-rule="evenodd"/><path d="M 255.208 80.365 C 270.726 89.209, 285.210 101.204, 296.085 114.221 L 300.865 119.942 307.393 110.775 L 313.921 101.608 306.710 96.298 C 297.906 89.815, 277.646 79.578, 269.540 77.516 C 266.262 76.682, 259.973 76, 255.564 76 L 247.548 76 255.208 80.365" stroke="none" fill="#0acefa" fill-rule="evenodd"/><path d="M 238.500 78.924 C 227.444 83.020, 226.883 81.463, 243.698 93.352 C 251.994 99.218, 259.594 105.251, 260.588 106.759 C 262.844 110.183, 263.671 119.877, 261.977 123.043 C 261.293 124.320, 258.513 128.478, 255.799 132.282 C 253.085 136.085, 251.007 139.296, 251.182 139.416 C 251.357 139.536, 255.569 140.125, 260.543 140.725 C 265.517 141.325, 272.340 142.935, 275.706 144.303 L 281.827 146.789 290.913 134.015 C 295.911 126.989, 300 120.556, 300 119.718 C 300 117.488, 282.163 99.102, 273.746 92.657 C 262.695 84.193, 250.180 76.994, 246.590 77.036 C 244.891 77.056, 241.250 77.906, 238.500 78.924 M 161.656 149.925 C 157.135 159.814, 156.366 162.820, 158.178 163.515 C 158.942 163.808, 167.598 163.925, 177.414 163.774 L 195.262 163.500 180.223 152.853 L 165.184 142.206 161.656 149.925" stroke="none" fill="#62d8f9" fill-rule="evenodd"/><path d="M 166 186.035 C 166 191.472, 166.173 191.978, 167.750 191.135 C 169.550 190.174, 173.467 189.708, 178.184 189.894 C 179.708 189.954, 184.893 192.748, 190.184 196.361 L 199.500 202.721 199.500 196.111 C 199.500 192.475, 199.865 187.363, 200.311 184.750 L 201.123 180 183.561 180 L 166 180 166 186.035 M 310.720 198.890 C 310.398 203.862, 309.242 210.167, 308.032 213.556 C 306.864 216.825, 305.817 220.130, 305.705 220.900 C 305.525 222.127, 321.009 234.245, 321.808 233.503 C 322.135 233.200, 319.096 199.906, 318.431 196.500 C 318.216 195.400, 316.520 193.525, 314.663 192.334 L 311.285 190.169 310.720 198.890 M 220.780 260.163 C 177.410 321.389, 160 346.104, 160 346.445 C 160 346.665, 166.029 346.992, 173.398 347.173 C 184.885 347.453, 187.096 347.772, 188.898 349.405 C 190.054 350.453, 191 352.140, 191 353.155 C 191 354.822, 191.940 355, 200.756 355 L 210.512 355 211.772 352.153 C 212.465 350.588, 214.171 348.788, 215.563 348.153 C 217.382 347.325, 234.439 347, 276.174 347 L 334.253 347 295.877 319.853 C 274.770 304.922, 256.518 291.984, 255.318 291.103 C 251.577 288.356, 249 282.675, 249 277.177 C 249 272.079, 251.415 267.581, 260.771 255.250 L 263.237 252 255.369 251.942 C 248.594 251.893, 241.751 250.578, 232.363 247.522 C 230.499 246.915, 229.025 248.523, 220.780 260.163 M 139 393.811 C 139 394.808, 137.651 417.195, 136.003 443.561 C 134.355 469.928, 133.005 492.512, 133.003 493.750 L 133 496 169 496 L 205 496 205.015 473.250 C 205.035 441.607, 207.129 433.941, 219.179 421.392 C 234.560 405.374, 256.458 401.602, 276.632 411.495 C 289.263 417.689, 299.942 431.638, 302.895 445.799 C 303.512 448.756, 304 461.022, 304 473.549 L 304 496 327.638 496 L 351.276 496 350.687 489.750 C 350.363 486.313, 348.866 462.913, 347.361 437.750 L 344.624 392 241.812 392 C 143.235 392, 139 392.075, 139 393.811" stroke="none" fill="#fa4954" fill-rule="evenodd"/><path d="" stroke="none" fill="#f0979c" fill-rule="evenodd"/><path d="M 223 222.313 C 223 222.485, 224.463 223.948, 226.250 225.563 L 229.500 228.500 226.563 225.250 C 223.825 222.221, 223 221.540, 223 222.313 M 209.921 231.750 C 208.799 233.233, 208.809 233.311, 209.985 232.264 C 211.098 231.272, 211.781 231.370, 213.436 232.764 C 215.495 234.496, 215.496 234.495, 213.595 232.250 C 211.314 229.556, 211.556 229.589, 209.921 231.750 M 253.250 251.689 C 254.213 251.941, 255.787 251.941, 256.750 251.689 C 257.712 251.438, 256.925 251.232, 255 251.232 C 253.075 251.232, 252.287 251.438, 253.250 251.689 M 113.264 403.718 C 114.784 403.947, 117.034 403.941, 118.264 403.704 C 119.494 403.467, 118.250 403.279, 115.500 403.286 C 112.750 403.294, 111.744 403.488, 113.264 403.718 M 394.264 403.718 C 395.784 403.947, 398.034 403.941, 399.264 403.704 C 400.494 403.467, 399.250 403.279, 396.500 403.286 C 393.750 403.294, 392.744 403.488, 394.264 403.718 M 122.272 417 C 122.272 419.475, 122.467 420.488, 122.706 419.250 C 122.944 418.012, 122.944 415.988, 122.706 414.750 C 122.467 413.512, 122.272 414.525, 122.272 417 M 219.437 421.250 L 216.500 424.500 219.750 421.563 C 221.537 419.948, 223 418.485, 223 418.313 C 223 417.540, 222.175 418.221, 219.437 421.250 M 286 418.313 C 286 418.485, 287.462 419.948, 289.250 421.563 L 292.500 424.500 289.563 421.250 C 286.825 418.221, 286 417.540, 286 418.313 M 121.252 433.500 C 121.263 435.700, 121.468 436.482, 121.707 435.238 C 121.946 433.994, 121.937 432.194, 121.687 431.238 C 121.437 430.282, 121.241 431.300, 121.252 433.500 M 443.250 430.689 C 444.212 430.941, 445.788 430.941, 446.750 430.689 C 447.712 430.438, 446.925 430.232, 445 430.232 C 443.075 430.232, 442.288 430.438, 443.250 430.689 M 390.232 435 C 390.232 436.925, 390.438 437.712, 390.689 436.750 C 390.941 435.788, 390.941 434.212, 390.689 433.250 C 390.438 432.288, 390.232 433.075, 390.232 435 M 120.272 450 C 120.272 452.475, 120.467 453.488, 120.706 452.250 C 120.944 451.012, 120.944 448.988, 120.706 447.750 C 120.467 446.512, 120.272 447.525, 120.272 450 M 51.750 496.749 C 63.988 496.908, 84.013 496.908, 96.250 496.749 C 108.488 496.590, 98.475 496.460, 74 496.460 C 49.525 496.460, 39.513 496.590, 51.750 496.749 M 150.315 496.749 C 160.664 496.912, 177.314 496.911, 187.315 496.748 C 197.317 496.585, 188.850 496.452, 168.500 496.453 C 148.150 496.453, 139.967 496.586, 150.315 496.749 M 237.186 496.748 C 246.363 496.913, 261.663 496.913, 271.186 496.749 C 280.709 496.584, 273.200 496.449, 254.500 496.449 C 235.800 496.449, 228.009 496.583, 237.186 496.748 M 322.750 496.749 C 333.338 496.911, 350.663 496.911, 361.250 496.749 C 371.838 496.587, 363.175 496.454, 342 496.454 C 320.825 496.454, 312.163 496.587, 322.750 496.749 M 415.750 496.749 C 427.988 496.908, 448.013 496.908, 460.250 496.749 C 472.488 496.590, 462.475 496.460, 438 496.460 C 413.525 496.460, 403.513 496.590, 415.750 496.749" stroke="none" fill="#0d0f0b" fill-rule="evenodd"/></svg>